<mxfile host="app.diagrams.net" modified="2024-03-13T04:47:51.443Z" agent="Mozilla/5.0 (Windows NT 10.0; Win64; x64) AppleWebKit/537.36 (KHTML, like Gecko) Chrome/122.0.0.0 Safari/537.36" version="22.1.18" etag="pbcbNk0BXVdspysGyGLK" type="github">
  <diagram name="Page-1" id="8MT96Zl6vpkesFGEO8dq">
    <mxGraphModel>
      <root>
        <mxCell id="0" />
        <mxCell id="1" parent="0" />
      </root>
    </mxGraphModel>
  </diagram>
</mxfile>
